<?xml version="1.0" encoding="utf-8"?>
<!-- Generator: Adobe Illustrator 16.0.0, SVG Export Plug-In . SVG Version: 6.00 Build 0)  -->
<!DOCTYPE svg PUBLIC "-//W3C//DTD SVG 1.0//EN" "http://www.w3.org/TR/2001/REC-SVG-20010904/DTD/svg10.dtd">
<svg version="1.0" id="Layer_1" xmlns="http://www.w3.org/2000/svg" xmlns:xlink="http://www.w3.org/1999/xlink" x="0px" y="0px"
	 width="32px" height="32px" viewBox="0 0 32 32" enable-background="new 0 0 32 32" xml:space="preserve">
<g>
	<path fill="#434854" d="M32,30.001c0,1.104-0.896,2-2,2H2c-1.104,0-2-0.896-2-2v-28c0-1.104,0.896-2,2-2h28c1.104,0,2,0.896,2,2
		V30.001z"/>
	<g opacity="0.1">
		<rect y="26.001" fill="#FFFFFF" width="32" height="1"/>
		<rect y="19.001" fill="#FFFFFF" width="32" height="1"/>
		<rect y="12.001" fill="#FFFFFF" width="32" height="1"/>
		<rect y="5.001" fill="#FFFFFF" width="32" height="1"/>
	</g>
	<path fill="#3AAD73" d="M27,9.001c0-0.553-0.447-1-1-1h-4c-0.553,0-1,0.447-1,1v23h6V9.001z"/>
	<path fill="#EACA44" d="M19,15.001c0-0.553-0.447-1-1-1h-4c-0.553,0-1,0.447-1,1v17h6V15.001z"/>
	<path fill="#EF4D4D" d="M11,21.001c0-0.553-0.447-1-1-1H6c-0.553,0-1,0.447-1,1v11h6V21.001z"/>
	<g opacity="0.14">
		<rect x="5" y="30.001" width="6" height="2"/>
		<rect x="21" y="30.001" width="6" height="2"/>
	</g>
	<rect x="13" y="30.001" opacity="0.1" width="6" height="2"/>
</g>
<g>
</g>
<g>
</g>
<g>
</g>
<g>
</g>
<g>
</g>
<g>
</g>
</svg>
