<?xml version="1.0" encoding="utf-8"?>
<!-- Generator: Adobe Illustrator 16.0.0, SVG Export Plug-In . SVG Version: 6.00 Build 0)  -->
<!DOCTYPE svg PUBLIC "-//W3C//DTD SVG 1.0//EN" "http://www.w3.org/TR/2001/REC-SVG-20010904/DTD/svg10.dtd">
<svg version="1.0" id="Layer_1" xmlns="http://www.w3.org/2000/svg" xmlns:xlink="http://www.w3.org/1999/xlink" x="0px" y="0px"
	 width="32px" height="32px" viewBox="0 0 32 32" enable-background="new 0 0 32 32" xml:space="preserve">
<g>
	<path fill="#EF4D4D" d="M30,30.011c0,1.104-0.896,2-2,2H4c-1.104,0-2-0.896-2-2v-26c0-1.104,0.896-2,2-2h24c1.104,0,2,0.896,2,2
		V30.011z"/>
	<rect x="4" y="5.011" fill="#EAEAEA" width="24" height="25"/>
	<rect x="4" y="29.011" opacity="0.1" width="24" height="1"/>
	<rect x="4" y="30.011" opacity="0.15" width="24" height="1"/>
	<path fill="#EACA44" d="M24,3.011h-5c0-1.657-1.343-3-3-3s-3,1.343-3,3H8c-0.553,0-1,0.447-1,1v3h18v-3
		C25,3.458,24.553,3.011,24,3.011z M16,4.011c-0.553,0-1-0.447-1-1s0.447-1,1-1s1,0.447,1,1S16.553,4.011,16,4.011z"/>
	<g opacity="0.1">
		<path d="M9,13.011h7c0.553,0,1-0.447,1-1s-0.447-1-1-1H9c-0.553,0-1,0.447-1,1S8.447,13.011,9,13.011z"/>
		<path d="M9,17.011h14c0.553,0,1-0.447,1-1s-0.447-1-1-1H9c-0.553,0-1,0.447-1,1S8.447,17.011,9,17.011z"/>
		<path d="M23,19.011H9c-0.553,0-1,0.447-1,1s0.447,1,1,1h14c0.553,0,1-0.447,1-1S23.553,19.011,23,19.011z"/>
		<path d="M23,23.011H9c-0.553,0-1,0.447-1,1s0.447,1,1,1h14c0.553,0,1-0.447,1-1S23.553,23.011,23,23.011z"/>
	</g>
</g>
<g>
</g>
<g>
</g>
<g>
</g>
<g>
</g>
<g>
</g>
<g>
</g>
</svg>
