<?xml version="1.0" encoding="utf-8"?>
<!-- Generator: Adobe Illustrator 16.0.0, SVG Export Plug-In . SVG Version: 6.00 Build 0)  -->
<!DOCTYPE svg PUBLIC "-//W3C//DTD SVG 1.0//EN" "http://www.w3.org/TR/2001/REC-SVG-20010904/DTD/svg10.dtd">
<svg version="1.0" id="Layer_1" xmlns="http://www.w3.org/2000/svg" xmlns:xlink="http://www.w3.org/1999/xlink" x="0px" y="0px"
	 width="32px" height="32px" viewBox="0 0 32 32" enable-background="new 0 0 32 32" xml:space="preserve">
<g>
	<g>
		<path fill="#434854" d="M29,0.005H3c-0.553,0-1,0.447-1,1v1c0,0.553,0.447,1,1,1h26c0.553,0,1-0.447,1-1v-1
			C30,0.452,29.553,0.005,29,0.005z"/>
		<path fill="#434854" d="M29,29.005H3c-0.553,0-1,0.447-1,1v1c0,0.553,0.447,1,1,1h26c0.553,0,1-0.447,1-1v-1
			C30,29.452,29.553,29.005,29,29.005z"/>
	</g>
	<g>
		<path fill="#EAEAEA" d="M16,16.005c-7.18,0-13,5.82-13,13h26C29,21.825,23.18,16.005,16,16.005z"/>
		<path fill="#EAEAEA" d="M29,3.005H3c0,7.18,5.82,13,13,13S29,10.185,29,3.005z"/>
	</g>
	<g>
		<path fill="#EACA44" d="M16,18.005c-5.392,0-9.868,3.881-10.81,9H26.81C25.868,21.886,21.392,18.005,16,18.005z"/>
		<path fill="#EACA44" d="M16,14.005c3.414,0,6.458-1.559,8.473-4H7.527C9.542,12.446,12.586,14.005,16,14.005z"/>
	</g>
	<path opacity="0.1" d="M28.949,4.005C28.975,3.674,29,3.343,29,3.005H3c0,0.338,0.025,0.669,0.051,1H28.949z"/>
	<path opacity="0.1" d="M16,16.005C15.977,16.005,16.023,16.005,16,16.005c4.252,2.764,7,7.551,7,13h6
		C29,21.825,23.18,16.005,16,16.005z"/>
	<path opacity="0.6" fill="#FFFFFF" d="M16,16.005C16.023,16.005,15.977,16.005,16,16.005c-4.252-2.764-7-7.551-7-13H3
		C3,10.185,8.82,16.005,16,16.005z"/>
</g>
<g>
</g>
<g>
</g>
<g>
</g>
<g>
</g>
<g>
</g>
<g>
</g>
</svg>
